<svg viewBox="0 0 800 800" xmlns="http://www.w3.org/2000/svg"><path d="M772 400c0 205.3-166.7 372-372 372S28 605.2 28 400 194.8 28 400 28s372 166.7 372 372z" fill="#CDDC39"/><path d="M415.2 192l38.4 118.2c2 6.6 8.3 11 15.2 11H593c15.5 0 22 20 9.4 29l-100.5 73c-5.7 4-8 11.3-6 18l38.5 118c4.8 14.7-12 27-24.6 18l-100.6-73c-5.6-4.2-13.2-4.2-18.8 0L290 577c-12.4 9-29.3-3.2-24.5-18l38.4-118c2-6.7-.3-14-6-18l-100.4-73c-12.5-9-6-29 9.4-29h124.2c7 0 13-4.4 15.2-11l38.4-118c4.8-15 25.6-15 30.4 0z" fill="#827717" stroke="#FFF" stroke-linecap="round" stroke-miterlimit="10" stroke-width="16"/></svg>
